<mxfile host="app.diagrams.net" agent="Mozilla/5.0 (Windows NT 10.0; Win64; x64) AppleWebKit/537.36 (KHTML, like Gecko) Chrome/133.0.0.0 Safari/537.36" version="24.7.7" pages="3">
  <diagram name="Name" id="ltzT5SsYBdAxyO781Ist">
    <mxGraphModel dx="683" dy="355" grid="1" gridSize="10" guides="1" tooltips="1" connect="1" arrows="1" fold="1" page="1" pageScale="1" pageWidth="827" pageHeight="1169" math="0" shadow="0">
      <root>
        <mxCell id="0" />
        <mxCell id="1" parent="0" />
        <mxCell id="JyyqqcXyBl7oPKqkZLgQ-26" value="" style="endArrow=none;html=1;rounded=0;" parent="1" edge="1">
          <mxGeometry width="50" height="50" relative="1" as="geometry">
            <mxPoint x="200" y="560" as="sourcePoint" />
            <mxPoint x="360" y="560" as="targetPoint" />
          </mxGeometry>
        </mxCell>
        <mxCell id="JyyqqcXyBl7oPKqkZLgQ-27" value="" style="endArrow=none;html=1;rounded=0;" parent="1" edge="1">
          <mxGeometry width="50" height="50" relative="1" as="geometry">
            <mxPoint x="200" y="640" as="sourcePoint" />
            <mxPoint x="200" y="560" as="targetPoint" />
          </mxGeometry>
        </mxCell>
        <mxCell id="JyyqqcXyBl7oPKqkZLgQ-28" value="" style="endArrow=none;html=1;rounded=0;" parent="1" edge="1">
          <mxGeometry width="50" height="50" relative="1" as="geometry">
            <mxPoint x="360" y="640" as="sourcePoint" />
            <mxPoint x="200" y="640" as="targetPoint" />
          </mxGeometry>
        </mxCell>
        <mxCell id="JyyqqcXyBl7oPKqkZLgQ-29" value="" style="endArrow=none;html=1;rounded=0;" parent="1" edge="1">
          <mxGeometry width="50" height="50" relative="1" as="geometry">
            <mxPoint x="360" y="640" as="sourcePoint" />
            <mxPoint x="360" y="560" as="targetPoint" />
          </mxGeometry>
        </mxCell>
        <mxCell id="JyyqqcXyBl7oPKqkZLgQ-30" value="" style="endArrow=none;html=1;rounded=0;fillColor=#d5e8d4;strokeColor=#82b366;" parent="1" edge="1">
          <mxGeometry width="50" height="50" relative="1" as="geometry">
            <mxPoint x="360" y="560" as="sourcePoint" />
            <mxPoint x="200" y="640" as="targetPoint" />
          </mxGeometry>
        </mxCell>
        <mxCell id="JyyqqcXyBl7oPKqkZLgQ-31" value="" style="endArrow=none;html=1;rounded=0;fillColor=#dae8fc;strokeColor=#CCE5FF;dashed=1;" parent="1" edge="1">
          <mxGeometry width="50" height="50" relative="1" as="geometry">
            <mxPoint x="300" y="700" as="sourcePoint" />
            <mxPoint x="420" y="580" as="targetPoint" />
          </mxGeometry>
        </mxCell>
        <mxCell id="JyyqqcXyBl7oPKqkZLgQ-33" value="" style="endArrow=none;html=1;rounded=0;dashed=1;" parent="1" edge="1">
          <mxGeometry width="50" height="50" relative="1" as="geometry">
            <mxPoint x="280" y="680" as="sourcePoint" />
            <mxPoint x="280" y="520" as="targetPoint" />
          </mxGeometry>
        </mxCell>
        <mxCell id="JyyqqcXyBl7oPKqkZLgQ-34" value="" style="endArrow=none;html=1;rounded=0;fillColor=#dae8fc;strokeColor=#6c8ebf;" parent="1" edge="1">
          <mxGeometry width="50" height="50" relative="1" as="geometry">
            <mxPoint x="340" y="540" as="sourcePoint" />
            <mxPoint x="220" y="660" as="targetPoint" />
          </mxGeometry>
        </mxCell>
        <mxCell id="JyyqqcXyBl7oPKqkZLgQ-35" value="" style="endArrow=none;html=1;rounded=0;fillColor=#f8cecc;strokeColor=#b85450;" parent="1" edge="1">
          <mxGeometry width="50" height="50" relative="1" as="geometry">
            <mxPoint x="340" y="700" as="sourcePoint" />
            <mxPoint x="340" y="500" as="targetPoint" />
          </mxGeometry>
        </mxCell>
        <mxCell id="JyyqqcXyBl7oPKqkZLgQ-36" value="" style="endArrow=none;dashed=1;html=1;rounded=0;" parent="1" edge="1">
          <mxGeometry width="50" height="50" relative="1" as="geometry">
            <mxPoint x="120" y="600" as="sourcePoint" />
            <mxPoint x="440" y="600" as="targetPoint" />
          </mxGeometry>
        </mxCell>
        <mxCell id="JyyqqcXyBl7oPKqkZLgQ-37" value="A" style="text;strokeColor=none;align=center;fillColor=none;html=1;verticalAlign=middle;whiteSpace=wrap;rounded=0;" parent="1" vertex="1">
          <mxGeometry x="270" y="590" width="10" height="10" as="geometry" />
        </mxCell>
        <mxCell id="JyyqqcXyBl7oPKqkZLgQ-40" value="D" style="text;strokeColor=none;align=center;fillColor=none;html=1;verticalAlign=middle;whiteSpace=wrap;rounded=0;" parent="1" vertex="1">
          <mxGeometry x="360" y="550" width="10" height="10" as="geometry" />
        </mxCell>
        <mxCell id="JyyqqcXyBl7oPKqkZLgQ-43" value="F" style="text;strokeColor=none;align=center;fillColor=none;html=1;verticalAlign=middle;whiteSpace=wrap;rounded=0;" parent="1" vertex="1">
          <mxGeometry x="340" y="530" width="10" height="10" as="geometry" />
        </mxCell>
        <mxCell id="JyyqqcXyBl7oPKqkZLgQ-44" value="G" style="text;strokeColor=none;align=center;fillColor=none;html=1;verticalAlign=middle;whiteSpace=wrap;rounded=0;" parent="1" vertex="1">
          <mxGeometry x="190" y="640" width="10" height="10" as="geometry" />
        </mxCell>
        <mxCell id="JyyqqcXyBl7oPKqkZLgQ-45" value="" style="endArrow=none;html=1;rounded=0;fillColor=#dae8fc;strokeColor=#6c8ebf;" parent="1" edge="1">
          <mxGeometry width="50" height="50" relative="1" as="geometry">
            <mxPoint x="140" y="580" as="sourcePoint" />
            <mxPoint x="260" y="700" as="targetPoint" />
          </mxGeometry>
        </mxCell>
        <mxCell id="JyyqqcXyBl7oPKqkZLgQ-47" value="&lt;br&gt;&lt;div style=&quot;text-align: left;&quot;&gt;&lt;span style=&quot;background-color: initial;&quot;&gt;Predefined: KAF&lt;br&gt;FDA = 90 - FAD = 90 - (&lt;/span&gt;&lt;span style=&quot;background-color: initial;&quot;&gt;KAD -&amp;nbsp;&lt;/span&gt;&lt;span style=&quot;background-color: initial;&quot;&gt;KAF)&lt;/span&gt;&lt;/div&gt;&lt;div style=&quot;text-align: left;&quot;&gt;&lt;span style=&quot;background-color: initial;&quot;&gt;= 90 - (&lt;/span&gt;&lt;span style=&quot;background-color: initial;&quot;&gt;arccos(AD / AK) -&amp;nbsp;&lt;/span&gt;&lt;span style=&quot;background-color: initial;&quot;&gt;KAF)&lt;/span&gt;&lt;/div&gt;" style="text;html=1;align=center;verticalAlign=middle;whiteSpace=wrap;rounded=0;" parent="1" vertex="1">
          <mxGeometry x="440" y="560" width="240" height="30" as="geometry" />
        </mxCell>
        <mxCell id="JyyqqcXyBl7oPKqkZLgQ-48" value="K" style="text;html=1;align=center;verticalAlign=middle;whiteSpace=wrap;rounded=0;" parent="1" vertex="1">
          <mxGeometry x="270" y="550" width="10" height="10" as="geometry" />
        </mxCell>
        <mxCell id="JyyqqcXyBl7oPKqkZLgQ-49" value="L" style="text;html=1;align=center;verticalAlign=middle;whiteSpace=wrap;rounded=0;" parent="1" vertex="1">
          <mxGeometry x="330" y="600" width="10" height="10" as="geometry" />
        </mxCell>
        <mxCell id="uIuwBRZ1UB-okvobMF6s-26" value="0" style="text;html=1;align=center;verticalAlign=middle;whiteSpace=wrap;rounded=0;fontStyle=1;fillColor=#f8cecc;strokeColor=#b85450;" parent="1" vertex="1">
          <mxGeometry x="420" y="520" width="20" height="20" as="geometry" />
        </mxCell>
        <mxCell id="uIuwBRZ1UB-okvobMF6s-27" value="1" style="text;html=1;align=center;verticalAlign=middle;whiteSpace=wrap;rounded=0;fontStyle=1;fillColor=#f8cecc;strokeColor=#b85450;" parent="1" vertex="1">
          <mxGeometry x="420" y="660" width="20" height="20" as="geometry" />
        </mxCell>
        <mxCell id="uIuwBRZ1UB-okvobMF6s-28" value="2" style="text;html=1;align=center;verticalAlign=middle;whiteSpace=wrap;rounded=0;fontStyle=1;fillColor=#f8cecc;strokeColor=#b85450;" parent="1" vertex="1">
          <mxGeometry x="120" y="660" width="20" height="20" as="geometry" />
        </mxCell>
        <mxCell id="uIuwBRZ1UB-okvobMF6s-29" value="3" style="text;html=1;align=center;verticalAlign=middle;whiteSpace=wrap;rounded=0;fontStyle=1;fillColor=#f8cecc;strokeColor=#b85450;" parent="1" vertex="1">
          <mxGeometry x="120" y="520" width="20" height="20" as="geometry" />
        </mxCell>
        <mxCell id="uIuwBRZ1UB-okvobMF6s-30" value="" style="endArrow=none;html=1;rounded=0;fillColor=#f8cecc;strokeColor=#b85450;" parent="1" edge="1">
          <mxGeometry width="50" height="50" relative="1" as="geometry">
            <mxPoint x="220" y="700" as="sourcePoint" />
            <mxPoint x="220" y="500" as="targetPoint" />
          </mxGeometry>
        </mxCell>
        <mxCell id="uIuwBRZ1UB-okvobMF6s-31" value="0:0" style="text;html=1;align=center;verticalAlign=middle;whiteSpace=wrap;rounded=0;" parent="1" vertex="1">
          <mxGeometry x="175" y="550" width="25" height="10" as="geometry" />
        </mxCell>
        <mxCell id="uIuwBRZ1UB-okvobMF6s-32" value="" style="endArrow=none;dashed=1;html=1;rounded=0;fillColor=#f5f5f5;strokeColor=#CCE5FF;" parent="1" edge="1">
          <mxGeometry width="50" height="50" relative="1" as="geometry">
            <mxPoint x="200" y="520" as="sourcePoint" />
            <mxPoint x="360" y="680" as="targetPoint" />
          </mxGeometry>
        </mxCell>
        <mxCell id="uIuwBRZ1UB-okvobMF6s-33" value="" style="endArrow=none;html=1;rounded=0;fillColor=#dae8fc;strokeColor=#CCE5FF;dashed=1;" parent="1" edge="1">
          <mxGeometry width="50" height="50" relative="1" as="geometry">
            <mxPoint x="140" y="620" as="sourcePoint" />
            <mxPoint x="260" y="500" as="targetPoint" />
          </mxGeometry>
        </mxCell>
        <mxCell id="Cd3XaYwlwLG_Ry0KV1gw-1" value="" style="endArrow=none;html=1;rounded=0;fillColor=#dae8fc;strokeColor=#6c8ebf;" edge="1" parent="1">
          <mxGeometry width="50" height="50" relative="1" as="geometry">
            <mxPoint x="300" y="500" as="sourcePoint" />
            <mxPoint x="420" y="620" as="targetPoint" />
          </mxGeometry>
        </mxCell>
      </root>
    </mxGraphModel>
  </diagram>
  <diagram id="Jp9MV0Kf8imSN911LjnW" name="Text">
    <mxGraphModel dx="1420" dy="745" grid="1" gridSize="10" guides="1" tooltips="1" connect="1" arrows="1" fold="1" page="1" pageScale="1" pageWidth="827" pageHeight="1169" math="0" shadow="0">
      <root>
        <mxCell id="0" />
        <mxCell id="1" parent="0" />
        <mxCell id="gEmSKo7o0tkbMqz-QMmU-2" value="" style="rounded=0;whiteSpace=wrap;html=1;fillColor=#fff2cc;strokeColor=#d6b656;" parent="1" vertex="1">
          <mxGeometry x="600" y="650" width="35" height="30" as="geometry" />
        </mxCell>
        <mxCell id="gEmSKo7o0tkbMqz-QMmU-4" value="" style="rounded=0;whiteSpace=wrap;html=1;fillColor=#fff2cc;strokeColor=#d6b656;" parent="1" vertex="1">
          <mxGeometry x="675" y="650" width="35" height="30" as="geometry" />
        </mxCell>
        <mxCell id="mKlO-LxwU_6byff5q-xm-2" value="" style="rounded=0;whiteSpace=wrap;html=1;fillColor=#d5e8d4;strokeColor=#82b366;" parent="1" vertex="1">
          <mxGeometry x="60" y="240" width="160" height="10" as="geometry" />
        </mxCell>
        <mxCell id="mKlO-LxwU_6byff5q-xm-4" value="" style="rounded=0;whiteSpace=wrap;html=1;fillColor=#d5e8d4;strokeColor=#82b366;" parent="1" vertex="1">
          <mxGeometry x="260" y="240" width="80" height="10" as="geometry" />
        </mxCell>
        <mxCell id="mKlO-LxwU_6byff5q-xm-6" value="" style="rounded=0;whiteSpace=wrap;html=1;fillColor=#d5e8d4;strokeColor=#82b366;" parent="1" vertex="1">
          <mxGeometry x="90" y="320" width="100" height="10" as="geometry" />
        </mxCell>
        <mxCell id="mKlO-LxwU_6byff5q-xm-8" value="" style="rounded=0;whiteSpace=wrap;html=1;fillColor=#d5e8d4;strokeColor=#82b366;" parent="1" vertex="1">
          <mxGeometry x="270" y="320" width="60" height="10" as="geometry" />
        </mxCell>
        <mxCell id="mKlO-LxwU_6byff5q-xm-10" value="" style="rounded=0;whiteSpace=wrap;html=1;fillColor=#d5e8d4;strokeColor=#82b366;" parent="1" vertex="1">
          <mxGeometry x="20" y="440" width="160" height="10" as="geometry" />
        </mxCell>
        <mxCell id="mKlO-LxwU_6byff5q-xm-12" value="" style="rounded=0;whiteSpace=wrap;html=1;fillColor=#d5e8d4;strokeColor=#82b366;" parent="1" vertex="1">
          <mxGeometry x="180" y="440" width="100" height="10" as="geometry" />
        </mxCell>
        <mxCell id="mKlO-LxwU_6byff5q-xm-17" value="" style="rounded=0;whiteSpace=wrap;html=1;fillColor=#f8cecc;strokeColor=#b85450;" parent="1" vertex="1">
          <mxGeometry x="500" y="450" width="40" height="30" as="geometry" />
        </mxCell>
        <mxCell id="mKlO-LxwU_6byff5q-xm-23" value="" style="endArrow=classic;startArrow=classic;html=1;rounded=0;fillColor=#ffe6cc;strokeColor=#d79b00;" parent="1" edge="1">
          <mxGeometry width="50" height="50" relative="1" as="geometry">
            <mxPoint x="20" y="490" as="sourcePoint" />
            <mxPoint x="180" y="490" as="targetPoint" />
          </mxGeometry>
        </mxCell>
        <mxCell id="mKlO-LxwU_6byff5q-xm-25" value="" style="endArrow=none;dashed=1;html=1;rounded=0;" parent="1" edge="1">
          <mxGeometry width="50" height="50" relative="1" as="geometry">
            <mxPoint x="80" y="560" as="sourcePoint" />
            <mxPoint x="80" y="400" as="targetPoint" />
          </mxGeometry>
        </mxCell>
        <mxCell id="mKlO-LxwU_6byff5q-xm-26" value="Start of Line" style="text;html=1;align=center;verticalAlign=middle;whiteSpace=wrap;rounded=0;" parent="1" vertex="1">
          <mxGeometry x="80" y="400" width="80" height="20" as="geometry" />
        </mxCell>
        <mxCell id="mKlO-LxwU_6byff5q-xm-27" value="" style="endArrow=classic;startArrow=classic;html=1;rounded=0;fillColor=#ffe6cc;strokeColor=#d79b00;" parent="1" edge="1">
          <mxGeometry width="50" height="50" relative="1" as="geometry">
            <mxPoint x="180" y="490" as="sourcePoint" />
            <mxPoint x="280" y="490" as="targetPoint" />
          </mxGeometry>
        </mxCell>
        <mxCell id="mKlO-LxwU_6byff5q-xm-28" value="" style="endArrow=classic;startArrow=classic;html=1;rounded=0;fillColor=#ffe6cc;strokeColor=#d79b00;" parent="1" edge="1">
          <mxGeometry width="50" height="50" relative="1" as="geometry">
            <mxPoint x="280" y="490" as="sourcePoint" />
            <mxPoint x="370" y="490" as="targetPoint" />
          </mxGeometry>
        </mxCell>
        <mxCell id="mKlO-LxwU_6byff5q-xm-29" value="" style="endArrow=classic;startArrow=classic;html=1;rounded=0;fillColor=#ffe6cc;strokeColor=#d79b00;" parent="1" edge="1">
          <mxGeometry width="50" height="50" relative="1" as="geometry">
            <mxPoint x="370" y="490" as="sourcePoint" />
            <mxPoint x="490" y="490" as="targetPoint" />
          </mxGeometry>
        </mxCell>
        <mxCell id="mKlO-LxwU_6byff5q-xm-30" value="" style="endArrow=classic;startArrow=classic;html=1;rounded=0;fillColor=#ffe6cc;strokeColor=#d79b00;" parent="1" edge="1">
          <mxGeometry width="50" height="50" relative="1" as="geometry">
            <mxPoint x="490" y="490" as="sourcePoint" />
            <mxPoint x="570" y="490" as="targetPoint" />
          </mxGeometry>
        </mxCell>
        <mxCell id="mKlO-LxwU_6byff5q-xm-31" value="" style="endArrow=classic;startArrow=classic;html=1;rounded=0;fillColor=#ffe6cc;strokeColor=#d79b00;" parent="1" edge="1">
          <mxGeometry width="50" height="50" relative="1" as="geometry">
            <mxPoint x="570" y="490" as="sourcePoint" />
            <mxPoint x="670" y="490" as="targetPoint" />
          </mxGeometry>
        </mxCell>
        <mxCell id="mKlO-LxwU_6byff5q-xm-32" value="" style="endArrow=classic;startArrow=classic;html=1;rounded=0;fillColor=#ffe6cc;strokeColor=#d79b00;" parent="1" edge="1">
          <mxGeometry width="50" height="50" relative="1" as="geometry">
            <mxPoint x="670" y="490" as="sourcePoint" />
            <mxPoint x="810" y="490" as="targetPoint" />
          </mxGeometry>
        </mxCell>
        <mxCell id="mKlO-LxwU_6byff5q-xm-33" value="Calculated fragment width = combine(prevRightGap, leftGap) + footWidth + rightGap" style="text;html=1;align=left;verticalAlign=middle;whiteSpace=wrap;rounded=0;" parent="1" vertex="1">
          <mxGeometry x="180" y="520" width="500" height="20" as="geometry" />
        </mxCell>
        <mxCell id="mKlO-LxwU_6byff5q-xm-35" value="" style="endArrow=none;html=1;rounded=0;" parent="1" edge="1">
          <mxGeometry width="50" height="50" relative="1" as="geometry">
            <mxPoint x="180" y="500" as="sourcePoint" />
            <mxPoint x="180" y="430" as="targetPoint" />
          </mxGeometry>
        </mxCell>
        <mxCell id="mKlO-LxwU_6byff5q-xm-36" value="" style="endArrow=none;html=1;rounded=0;" parent="1" edge="1">
          <mxGeometry width="50" height="50" relative="1" as="geometry">
            <mxPoint x="280" y="500" as="sourcePoint" />
            <mxPoint x="280" y="430" as="targetPoint" />
          </mxGeometry>
        </mxCell>
        <mxCell id="mKlO-LxwU_6byff5q-xm-37" value="" style="endArrow=none;html=1;rounded=0;" parent="1" edge="1">
          <mxGeometry width="50" height="50" relative="1" as="geometry">
            <mxPoint x="370" y="500" as="sourcePoint" />
            <mxPoint x="370" y="430" as="targetPoint" />
          </mxGeometry>
        </mxCell>
        <mxCell id="mKlO-LxwU_6byff5q-xm-38" value="" style="endArrow=none;html=1;rounded=0;" parent="1" edge="1">
          <mxGeometry width="50" height="50" relative="1" as="geometry">
            <mxPoint x="490" y="500" as="sourcePoint" />
            <mxPoint x="490" y="430" as="targetPoint" />
          </mxGeometry>
        </mxCell>
        <mxCell id="mKlO-LxwU_6byff5q-xm-39" value="" style="endArrow=none;html=1;rounded=0;" parent="1" edge="1">
          <mxGeometry width="50" height="50" relative="1" as="geometry">
            <mxPoint x="570" y="500" as="sourcePoint" />
            <mxPoint x="570" y="430" as="targetPoint" />
          </mxGeometry>
        </mxCell>
        <mxCell id="mKlO-LxwU_6byff5q-xm-40" value="" style="endArrow=none;html=1;rounded=0;" parent="1" edge="1">
          <mxGeometry width="50" height="50" relative="1" as="geometry">
            <mxPoint x="670" y="500" as="sourcePoint" />
            <mxPoint x="670" y="430" as="targetPoint" />
          </mxGeometry>
        </mxCell>
        <mxCell id="mKlO-LxwU_6byff5q-xm-41" value="" style="rounded=0;whiteSpace=wrap;html=1;fillColor=#dae8fc;strokeColor=#6c8ebf;" parent="1" vertex="1">
          <mxGeometry x="60" y="250" width="60" height="30" as="geometry" />
        </mxCell>
        <mxCell id="mKlO-LxwU_6byff5q-xm-42" value="" style="rounded=0;whiteSpace=wrap;html=1;fillColor=#e1d5e7;strokeColor=#9673a6;" parent="1" vertex="1">
          <mxGeometry x="160" y="250" width="60" height="30" as="geometry" />
        </mxCell>
        <mxCell id="mKlO-LxwU_6byff5q-xm-43" value="" style="rounded=0;whiteSpace=wrap;html=1;fillColor=#e1d5e7;strokeColor=#9673a6;" parent="1" vertex="1">
          <mxGeometry x="160" y="330" width="30" height="30" as="geometry" />
        </mxCell>
        <mxCell id="mKlO-LxwU_6byff5q-xm-44" value="" style="rounded=0;whiteSpace=wrap;html=1;fillColor=#dae8fc;strokeColor=#6c8ebf;" parent="1" vertex="1">
          <mxGeometry x="90" y="330" width="30" height="30" as="geometry" />
        </mxCell>
        <mxCell id="mKlO-LxwU_6byff5q-xm-45" value="" style="rounded=0;whiteSpace=wrap;html=1;fillColor=#dae8fc;strokeColor=#6c8ebf;" parent="1" vertex="1">
          <mxGeometry x="20" y="450" width="60" height="30" as="geometry" />
        </mxCell>
        <mxCell id="mKlO-LxwU_6byff5q-xm-46" value="" style="rounded=0;whiteSpace=wrap;html=1;fillColor=#e1d5e7;strokeColor=#9673a6;" parent="1" vertex="1">
          <mxGeometry x="120" y="450" width="60" height="30" as="geometry" />
        </mxCell>
        <mxCell id="mKlO-LxwU_6byff5q-xm-47" value="" style="rounded=0;whiteSpace=wrap;html=1;fillColor=#dae8fc;strokeColor=#6c8ebf;" parent="1" vertex="1">
          <mxGeometry x="180" y="450" width="30" height="30" as="geometry" />
        </mxCell>
        <mxCell id="mKlO-LxwU_6byff5q-xm-48" value="" style="rounded=0;whiteSpace=wrap;html=1;fillColor=#dae8fc;strokeColor=#6c8ebf;" parent="1" vertex="1">
          <mxGeometry x="490" y="450" width="10" height="30" as="geometry" />
        </mxCell>
        <mxCell id="mKlO-LxwU_6byff5q-xm-49" value="" style="rounded=0;whiteSpace=wrap;html=1;fillColor=#e1d5e7;strokeColor=#9673a6;" parent="1" vertex="1">
          <mxGeometry x="540" y="450" width="10" height="30" as="geometry" />
        </mxCell>
        <mxCell id="mKlO-LxwU_6byff5q-xm-50" value="" style="rounded=0;whiteSpace=wrap;html=1;fillColor=#dae8fc;strokeColor=#6c8ebf;" parent="1" vertex="1">
          <mxGeometry x="670" y="450" width="40" height="30" as="geometry" />
        </mxCell>
        <mxCell id="mKlO-LxwU_6byff5q-xm-51" value="" style="rounded=0;whiteSpace=wrap;html=1;fillColor=#e1d5e7;strokeColor=#9673a6;" parent="1" vertex="1">
          <mxGeometry x="750" y="450" width="60" height="30" as="geometry" />
        </mxCell>
        <mxCell id="mKlO-LxwU_6byff5q-xm-14" value="" style="rounded=0;whiteSpace=wrap;html=1;fillColor=#d5e8d4;strokeColor=#82b366;" parent="1" vertex="1">
          <mxGeometry x="280" y="440" width="60" height="10" as="geometry" />
        </mxCell>
        <mxCell id="mKlO-LxwU_6byff5q-xm-16" value="" style="rounded=0;whiteSpace=wrap;html=1;fillColor=#d5e8d4;strokeColor=#82b366;" parent="1" vertex="1">
          <mxGeometry x="390" y="440" width="80" height="10" as="geometry" />
        </mxCell>
        <mxCell id="mKlO-LxwU_6byff5q-xm-18" value="" style="rounded=0;whiteSpace=wrap;html=1;fillColor=#d5e8d4;strokeColor=#82b366;" parent="1" vertex="1">
          <mxGeometry x="470" y="440" width="100" height="10" as="geometry" />
        </mxCell>
        <mxCell id="mKlO-LxwU_6byff5q-xm-20" value="" style="rounded=0;whiteSpace=wrap;html=1;fillColor=#d5e8d4;strokeColor=#82b366;" parent="1" vertex="1">
          <mxGeometry x="570" y="440" width="80" height="10" as="geometry" />
        </mxCell>
        <mxCell id="mKlO-LxwU_6byff5q-xm-22" value="" style="rounded=0;whiteSpace=wrap;html=1;fillColor=#d5e8d4;strokeColor=#82b366;" parent="1" vertex="1">
          <mxGeometry x="650" y="440" width="160" height="10" as="geometry" />
        </mxCell>
        <mxCell id="mKlO-LxwU_6byff5q-xm-52" value="" style="rounded=0;whiteSpace=wrap;html=1;fillColor=#d5e8d4;strokeColor=#82b366;" parent="1" vertex="1">
          <mxGeometry x="60" y="240" width="160" height="10" as="geometry" />
        </mxCell>
        <mxCell id="mKlO-LxwU_6byff5q-xm-53" value="" style="rounded=0;whiteSpace=wrap;html=1;fillColor=#d5e8d4;strokeColor=#82b366;" parent="1" vertex="1">
          <mxGeometry x="90" y="320" width="100" height="10" as="geometry" />
        </mxCell>
        <mxCell id="mKlO-LxwU_6byff5q-xm-54" value="" style="rounded=0;whiteSpace=wrap;html=1;fillColor=#d5e8d4;strokeColor=#82b366;" parent="1" vertex="1">
          <mxGeometry x="270" y="320" width="60" height="10" as="geometry" />
        </mxCell>
        <mxCell id="mKlO-LxwU_6byff5q-xm-55" value="" style="rounded=0;whiteSpace=wrap;html=1;fillColor=#d5e8d4;strokeColor=#82b366;" parent="1" vertex="1">
          <mxGeometry x="260" y="240" width="80" height="10" as="geometry" />
        </mxCell>
        <mxCell id="mKlO-LxwU_6byff5q-xm-56" value="" style="rounded=0;whiteSpace=wrap;html=1;fillColor=#d5e8d4;strokeColor=#82b366;" parent="1" vertex="1">
          <mxGeometry x="20" y="440" width="160" height="10" as="geometry" />
        </mxCell>
        <mxCell id="mKlO-LxwU_6byff5q-xm-57" value="" style="rounded=0;whiteSpace=wrap;html=1;fillColor=#d5e8d4;strokeColor=#82b366;" parent="1" vertex="1">
          <mxGeometry x="180" y="440" width="100" height="10" as="geometry" />
        </mxCell>
        <mxCell id="mKlO-LxwU_6byff5q-xm-1" value="" style="rounded=0;whiteSpace=wrap;html=1;fillColor=#f8cecc;strokeColor=#b85450;" parent="1" vertex="1">
          <mxGeometry x="120" y="250" width="40" height="30" as="geometry" />
        </mxCell>
        <mxCell id="mKlO-LxwU_6byff5q-xm-3" value="" style="rounded=0;whiteSpace=wrap;html=1;fillColor=#f8cecc;strokeColor=#b85450;" parent="1" vertex="1">
          <mxGeometry x="240" y="250" width="120" height="30" as="geometry" />
        </mxCell>
        <mxCell id="mKlO-LxwU_6byff5q-xm-5" value="" style="rounded=0;whiteSpace=wrap;html=1;fillColor=#f8cecc;strokeColor=#b85450;" parent="1" vertex="1">
          <mxGeometry x="120" y="330" width="40" height="30" as="geometry" />
        </mxCell>
        <mxCell id="mKlO-LxwU_6byff5q-xm-7" value="" style="rounded=0;whiteSpace=wrap;html=1;fillColor=#f8cecc;strokeColor=#b85450;" parent="1" vertex="1">
          <mxGeometry x="240" y="330" width="120" height="30" as="geometry" />
        </mxCell>
        <mxCell id="mKlO-LxwU_6byff5q-xm-9" value="" style="rounded=0;whiteSpace=wrap;html=1;fillColor=#f8cecc;strokeColor=#b85450;" parent="1" vertex="1">
          <mxGeometry x="80" y="450" width="40" height="30" as="geometry" />
        </mxCell>
        <mxCell id="mKlO-LxwU_6byff5q-xm-11" value="" style="rounded=0;whiteSpace=wrap;html=1;fillColor=#f8cecc;strokeColor=#b85450;" parent="1" vertex="1">
          <mxGeometry x="210" y="450" width="40" height="30" as="geometry" />
        </mxCell>
        <mxCell id="mKlO-LxwU_6byff5q-xm-13" value="" style="rounded=0;whiteSpace=wrap;html=1;fillColor=#f8cecc;strokeColor=#b85450;" parent="1" vertex="1">
          <mxGeometry x="250" y="450" width="120" height="30" as="geometry" />
        </mxCell>
        <mxCell id="mKlO-LxwU_6byff5q-xm-15" value="" style="rounded=0;whiteSpace=wrap;html=1;fillColor=#f8cecc;strokeColor=#b85450;" parent="1" vertex="1">
          <mxGeometry x="370" y="450" width="120" height="30" as="geometry" />
        </mxCell>
        <mxCell id="mKlO-LxwU_6byff5q-xm-19" value="" style="rounded=0;whiteSpace=wrap;html=1;fillColor=#f8cecc;strokeColor=#b85450;" parent="1" vertex="1">
          <mxGeometry x="550" y="450" width="120" height="30" as="geometry" />
        </mxCell>
        <mxCell id="mKlO-LxwU_6byff5q-xm-21" value="" style="rounded=0;whiteSpace=wrap;html=1;fillColor=#f8cecc;strokeColor=#b85450;" parent="1" vertex="1">
          <mxGeometry x="710" y="450" width="40" height="30" as="geometry" />
        </mxCell>
        <mxCell id="5N9IasQZnGzKYWPamvD5-19" value="" style="rounded=0;whiteSpace=wrap;html=1;fillColor=#dae8fc;strokeColor=#6c8ebf;" parent="1" vertex="1">
          <mxGeometry x="200" y="650" width="40" height="30" as="geometry" />
        </mxCell>
        <mxCell id="5N9IasQZnGzKYWPamvD5-25" value="" style="rounded=0;whiteSpace=wrap;html=1;fillColor=#d5e8d4;strokeColor=#82b366;" parent="1" vertex="1">
          <mxGeometry x="360" y="640" width="20" height="10" as="geometry" />
        </mxCell>
        <mxCell id="5N9IasQZnGzKYWPamvD5-28" value="" style="rounded=0;whiteSpace=wrap;html=1;fillColor=#e1d5e7;strokeColor=#9673a6;" parent="1" vertex="1">
          <mxGeometry x="280" y="650" width="30" height="30" as="geometry" />
        </mxCell>
        <mxCell id="5N9IasQZnGzKYWPamvD5-21" value="" style="rounded=0;whiteSpace=wrap;html=1;fillColor=#d5e8d4;strokeColor=#82b366;" parent="1" vertex="1">
          <mxGeometry x="120" y="640" width="40" height="10" as="geometry" />
        </mxCell>
        <mxCell id="5N9IasQZnGzKYWPamvD5-22" value="" style="rounded=0;whiteSpace=wrap;html=1;fillColor=#d5e8d4;strokeColor=#82b366;" parent="1" vertex="1">
          <mxGeometry x="160" y="640" width="200" height="10" as="geometry" />
        </mxCell>
        <mxCell id="5N9IasQZnGzKYWPamvD5-23" value="" style="rounded=0;whiteSpace=wrap;html=1;fillColor=#f8cecc;strokeColor=#b85450;" parent="1" vertex="1">
          <mxGeometry x="80" y="650" width="120" height="30" as="geometry" />
        </mxCell>
        <mxCell id="5N9IasQZnGzKYWPamvD5-24" value="" style="rounded=0;whiteSpace=wrap;html=1;fillColor=#f8cecc;strokeColor=#b85450;" parent="1" vertex="1">
          <mxGeometry x="240" y="650" width="40" height="30" as="geometry" />
        </mxCell>
        <mxCell id="5N9IasQZnGzKYWPamvD5-27" value="" style="rounded=0;whiteSpace=wrap;html=1;fillColor=#f8cecc;strokeColor=#b85450;" parent="1" vertex="1">
          <mxGeometry x="310" y="650" width="120" height="30" as="geometry" />
        </mxCell>
        <mxCell id="5N9IasQZnGzKYWPamvD5-29" value="" style="endArrow=classic;startArrow=classic;html=1;rounded=0;" parent="1" edge="1">
          <mxGeometry width="50" height="50" relative="1" as="geometry">
            <mxPoint x="160" y="700" as="sourcePoint" />
            <mxPoint x="200" y="700" as="targetPoint" />
          </mxGeometry>
        </mxCell>
        <mxCell id="5N9IasQZnGzKYWPamvD5-31" style="edgeStyle=orthogonalEdgeStyle;rounded=0;orthogonalLoop=1;jettySize=auto;html=1;exitX=0.5;exitY=0;exitDx=0;exitDy=0;" parent="1" source="5N9IasQZnGzKYWPamvD5-30" edge="1">
          <mxGeometry relative="1" as="geometry">
            <mxPoint x="180" y="700" as="targetPoint" />
            <mxPoint x="110" y="740" as="sourcePoint" />
            <Array as="points">
              <mxPoint x="70" y="720" />
              <mxPoint x="180" y="720" />
            </Array>
          </mxGeometry>
        </mxCell>
        <mxCell id="5N9IasQZnGzKYWPamvD5-30" value="lostLeftWidth" style="text;html=1;align=center;verticalAlign=middle;whiteSpace=wrap;rounded=0;" parent="1" vertex="1">
          <mxGeometry x="40" y="740" width="60" height="20" as="geometry" />
        </mxCell>
        <mxCell id="5N9IasQZnGzKYWPamvD5-32" value="" style="endArrow=classic;startArrow=classic;html=1;rounded=0;" parent="1" edge="1">
          <mxGeometry width="50" height="50" relative="1" as="geometry">
            <mxPoint x="200" y="700" as="sourcePoint" />
            <mxPoint x="240" y="700" as="targetPoint" />
          </mxGeometry>
        </mxCell>
        <mxCell id="5N9IasQZnGzKYWPamvD5-34" style="edgeStyle=orthogonalEdgeStyle;rounded=0;orthogonalLoop=1;jettySize=auto;html=1;exitX=0.5;exitY=0;exitDx=0;exitDy=0;" parent="1" source="5N9IasQZnGzKYWPamvD5-33" edge="1">
          <mxGeometry relative="1" as="geometry">
            <mxPoint x="220" y="700" as="targetPoint" />
            <Array as="points">
              <mxPoint x="170" y="730" />
              <mxPoint x="220" y="730" />
            </Array>
          </mxGeometry>
        </mxCell>
        <mxCell id="5N9IasQZnGzKYWPamvD5-33" value="vacantLeftWidth" style="text;html=1;align=center;verticalAlign=middle;whiteSpace=wrap;rounded=0;" parent="1" vertex="1">
          <mxGeometry x="140" y="740" width="60" height="20" as="geometry" />
        </mxCell>
        <mxCell id="5N9IasQZnGzKYWPamvD5-35" value="" style="endArrow=classic;startArrow=classic;html=1;rounded=0;" parent="1" edge="1">
          <mxGeometry width="50" height="50" relative="1" as="geometry">
            <mxPoint x="240" y="700" as="sourcePoint" />
            <mxPoint x="280" y="700" as="targetPoint" />
          </mxGeometry>
        </mxCell>
        <mxCell id="5N9IasQZnGzKYWPamvD5-37" style="edgeStyle=orthogonalEdgeStyle;rounded=0;orthogonalLoop=1;jettySize=auto;html=1;exitX=0.5;exitY=0;exitDx=0;exitDy=0;" parent="1" source="5N9IasQZnGzKYWPamvD5-36" edge="1">
          <mxGeometry relative="1" as="geometry">
            <mxPoint x="259.96153846153845" y="700" as="targetPoint" />
          </mxGeometry>
        </mxCell>
        <mxCell id="5N9IasQZnGzKYWPamvD5-36" value="footTextWidth" style="text;html=1;align=center;verticalAlign=middle;whiteSpace=wrap;rounded=0;" parent="1" vertex="1">
          <mxGeometry x="230" y="740" width="60" height="20" as="geometry" />
        </mxCell>
        <mxCell id="5N9IasQZnGzKYWPamvD5-39" style="edgeStyle=orthogonalEdgeStyle;rounded=0;orthogonalLoop=1;jettySize=auto;html=1;exitX=0.5;exitY=1;exitDx=0;exitDy=0;" parent="1" source="5N9IasQZnGzKYWPamvD5-38" edge="1">
          <mxGeometry relative="1" as="geometry">
            <mxPoint x="260" y="620" as="targetPoint" />
            <Array as="points">
              <mxPoint x="260" y="610" />
            </Array>
          </mxGeometry>
        </mxCell>
        <mxCell id="5N9IasQZnGzKYWPamvD5-38" value="headTextWidth" style="text;html=1;align=center;verticalAlign=middle;whiteSpace=wrap;rounded=0;" parent="1" vertex="1">
          <mxGeometry x="230" y="580" width="60" height="20" as="geometry" />
        </mxCell>
        <mxCell id="5N9IasQZnGzKYWPamvD5-40" value="" style="endArrow=classic;startArrow=classic;html=1;rounded=0;" parent="1" edge="1">
          <mxGeometry width="50" height="50" relative="1" as="geometry">
            <mxPoint x="160" y="620" as="sourcePoint" />
            <mxPoint x="360" y="620" as="targetPoint" />
          </mxGeometry>
        </mxCell>
        <mxCell id="5N9IasQZnGzKYWPamvD5-41" value="" style="endArrow=classic;startArrow=classic;html=1;rounded=0;" parent="1" edge="1">
          <mxGeometry width="50" height="50" relative="1" as="geometry">
            <mxPoint x="280" y="700" as="sourcePoint" />
            <mxPoint x="310" y="700" as="targetPoint" />
          </mxGeometry>
        </mxCell>
        <mxCell id="5N9IasQZnGzKYWPamvD5-43" style="edgeStyle=orthogonalEdgeStyle;rounded=0;orthogonalLoop=1;jettySize=auto;html=1;exitX=0.5;exitY=0;exitDx=0;exitDy=0;" parent="1" source="5N9IasQZnGzKYWPamvD5-42" edge="1">
          <mxGeometry relative="1" as="geometry">
            <mxPoint x="300" y="700" as="targetPoint" />
            <Array as="points">
              <mxPoint x="350" y="730" />
              <mxPoint x="300" y="730" />
            </Array>
          </mxGeometry>
        </mxCell>
        <mxCell id="5N9IasQZnGzKYWPamvD5-42" value="vacantRightWidth" style="text;html=1;align=center;verticalAlign=middle;whiteSpace=wrap;rounded=0;" parent="1" vertex="1">
          <mxGeometry x="320" y="740" width="60" height="20" as="geometry" />
        </mxCell>
        <mxCell id="5N9IasQZnGzKYWPamvD5-45" style="edgeStyle=orthogonalEdgeStyle;rounded=0;orthogonalLoop=1;jettySize=auto;html=1;exitX=0.5;exitY=0;exitDx=0;exitDy=0;" parent="1" source="5N9IasQZnGzKYWPamvD5-44" edge="1">
          <mxGeometry relative="1" as="geometry">
            <mxPoint x="340" y="700" as="targetPoint" />
            <Array as="points">
              <mxPoint x="470" y="720" />
              <mxPoint x="340" y="720" />
            </Array>
          </mxGeometry>
        </mxCell>
        <mxCell id="5N9IasQZnGzKYWPamvD5-44" value="lostRightWidth" style="text;html=1;align=center;verticalAlign=middle;whiteSpace=wrap;rounded=0;" parent="1" vertex="1">
          <mxGeometry x="440" y="740" width="60" height="20" as="geometry" />
        </mxCell>
        <mxCell id="5N9IasQZnGzKYWPamvD5-46" value="" style="endArrow=classic;startArrow=classic;html=1;rounded=0;" parent="1" edge="1">
          <mxGeometry width="50" height="50" relative="1" as="geometry">
            <mxPoint x="310" y="700" as="sourcePoint" />
            <mxPoint x="360" y="700" as="targetPoint" />
          </mxGeometry>
        </mxCell>
        <mxCell id="5N9IasQZnGzKYWPamvD5-47" value="" style="endArrow=none;html=1;rounded=0;" parent="1" edge="1">
          <mxGeometry width="50" height="50" relative="1" as="geometry">
            <mxPoint x="200" y="690" as="sourcePoint" />
            <mxPoint x="200" y="650" as="targetPoint" />
          </mxGeometry>
        </mxCell>
        <mxCell id="gEmSKo7o0tkbMqz-QMmU-1" value="" style="endArrow=none;html=1;rounded=0;" parent="1" edge="1">
          <mxGeometry width="50" height="50" relative="1" as="geometry">
            <mxPoint x="360" y="690" as="sourcePoint" />
            <mxPoint x="360" y="650" as="targetPoint" />
          </mxGeometry>
        </mxCell>
        <mxCell id="gEmSKo7o0tkbMqz-QMmU-3" value="" style="rounded=0;whiteSpace=wrap;html=1;fillColor=#d5e8d4;strokeColor=#82b366;" parent="1" vertex="1">
          <mxGeometry x="760" y="640" width="20" height="10" as="geometry" />
        </mxCell>
        <mxCell id="gEmSKo7o0tkbMqz-QMmU-5" value="" style="rounded=0;whiteSpace=wrap;html=1;fillColor=#d5e8d4;strokeColor=#82b366;" parent="1" vertex="1">
          <mxGeometry x="520" y="640" width="40" height="10" as="geometry" />
        </mxCell>
        <mxCell id="gEmSKo7o0tkbMqz-QMmU-6" value="" style="rounded=0;whiteSpace=wrap;html=1;fillColor=#d5e8d4;strokeColor=#82b366;" parent="1" vertex="1">
          <mxGeometry x="560" y="640" width="200" height="10" as="geometry" />
        </mxCell>
        <mxCell id="gEmSKo7o0tkbMqz-QMmU-7" value="" style="rounded=0;whiteSpace=wrap;html=1;fillColor=#f8cecc;strokeColor=#b85450;" parent="1" vertex="1">
          <mxGeometry x="480" y="650" width="120" height="30" as="geometry" />
        </mxCell>
        <mxCell id="gEmSKo7o0tkbMqz-QMmU-8" value="" style="rounded=0;whiteSpace=wrap;html=1;fillColor=#f8cecc;strokeColor=#b85450;" parent="1" vertex="1">
          <mxGeometry x="635" y="650" width="40" height="30" as="geometry" />
        </mxCell>
        <mxCell id="gEmSKo7o0tkbMqz-QMmU-9" value="" style="rounded=0;whiteSpace=wrap;html=1;fillColor=#f8cecc;strokeColor=#b85450;" parent="1" vertex="1">
          <mxGeometry x="710" y="650" width="120" height="30" as="geometry" />
        </mxCell>
        <mxCell id="gEmSKo7o0tkbMqz-QMmU-13" value="" style="endArrow=none;html=1;rounded=0;" parent="1" edge="1">
          <mxGeometry width="50" height="50" relative="1" as="geometry">
            <mxPoint x="600" y="690" as="sourcePoint" />
            <mxPoint x="600" y="650" as="targetPoint" />
          </mxGeometry>
        </mxCell>
        <mxCell id="gEmSKo7o0tkbMqz-QMmU-14" value="" style="endArrow=none;html=1;rounded=0;" parent="1" edge="1">
          <mxGeometry width="50" height="50" relative="1" as="geometry">
            <mxPoint x="760" y="690" as="sourcePoint" />
            <mxPoint x="760" y="650" as="targetPoint" />
          </mxGeometry>
        </mxCell>
        <mxCell id="gEmSKo7o0tkbMqz-QMmU-17" value="" style="rounded=0;whiteSpace=wrap;html=1;fillColor=#d5e8d4;strokeColor=#82b366;" parent="1" vertex="1">
          <mxGeometry x="120" y="840" width="160" height="10" as="geometry" />
        </mxCell>
        <mxCell id="gEmSKo7o0tkbMqz-QMmU-18" value="" style="rounded=0;whiteSpace=wrap;html=1;fillColor=#dae8fc;strokeColor=#6c8ebf;" parent="1" vertex="1">
          <mxGeometry x="120" y="850" width="50" height="30" as="geometry" />
        </mxCell>
        <mxCell id="gEmSKo7o0tkbMqz-QMmU-19" value="" style="rounded=0;whiteSpace=wrap;html=1;fillColor=#e1d5e7;strokeColor=#9673a6;" parent="1" vertex="1">
          <mxGeometry x="230" y="850" width="50" height="30" as="geometry" />
        </mxCell>
        <mxCell id="gEmSKo7o0tkbMqz-QMmU-20" value="" style="rounded=0;whiteSpace=wrap;html=1;fillColor=#d5e8d4;strokeColor=#82b366;" parent="1" vertex="1">
          <mxGeometry x="120" y="840" width="160" height="10" as="geometry" />
        </mxCell>
        <mxCell id="gEmSKo7o0tkbMqz-QMmU-21" value="" style="rounded=0;whiteSpace=wrap;html=1;fillColor=#f8cecc;strokeColor=#b85450;" parent="1" vertex="1">
          <mxGeometry x="170" y="850" width="60" height="30" as="geometry" />
        </mxCell>
        <mxCell id="gEmSKo7o0tkbMqz-QMmU-23" value="" style="rounded=0;whiteSpace=wrap;html=1;fillColor=#d5e8d4;strokeColor=#82b366;" parent="1" vertex="1">
          <mxGeometry x="280" y="840" width="120" height="10" as="geometry" />
        </mxCell>
        <mxCell id="gEmSKo7o0tkbMqz-QMmU-24" value="" style="rounded=0;whiteSpace=wrap;html=1;fillColor=#f8cecc;strokeColor=#b85450;" parent="1" vertex="1">
          <mxGeometry x="320" y="850" width="40" height="30" as="geometry" />
        </mxCell>
        <mxCell id="gEmSKo7o0tkbMqz-QMmU-25" value="" style="rounded=0;whiteSpace=wrap;html=1;fillColor=#dae8fc;strokeColor=#6c8ebf;" parent="1" vertex="1">
          <mxGeometry x="280" y="850" width="40" height="30" as="geometry" />
        </mxCell>
        <mxCell id="gEmSKo7o0tkbMqz-QMmU-26" value="" style="rounded=0;whiteSpace=wrap;html=1;fillColor=#e1d5e7;strokeColor=#9673a6;" parent="1" vertex="1">
          <mxGeometry x="360" y="850" width="40" height="30" as="geometry" />
        </mxCell>
        <mxCell id="gEmSKo7o0tkbMqz-QMmU-37" value="" style="endArrow=classic;startArrow=classic;html=1;rounded=0;" parent="1" edge="1">
          <mxGeometry width="50" height="50" relative="1" as="geometry">
            <mxPoint x="160" y="610" as="sourcePoint" />
            <mxPoint x="240" y="610" as="targetPoint" />
          </mxGeometry>
        </mxCell>
        <mxCell id="gEmSKo7o0tkbMqz-QMmU-39" style="edgeStyle=orthogonalEdgeStyle;rounded=0;orthogonalLoop=1;jettySize=auto;html=1;exitX=1;exitY=0.5;exitDx=0;exitDy=0;" parent="1" source="gEmSKo7o0tkbMqz-QMmU-38" edge="1">
          <mxGeometry relative="1" as="geometry">
            <mxPoint x="200" y="610" as="targetPoint" />
          </mxGeometry>
        </mxCell>
        <mxCell id="gEmSKo7o0tkbMqz-QMmU-38" value="leftGap" style="text;html=1;align=center;verticalAlign=middle;whiteSpace=wrap;rounded=0;" parent="1" vertex="1">
          <mxGeometry x="110" y="580" width="60" height="20" as="geometry" />
        </mxCell>
        <mxCell id="gEmSKo7o0tkbMqz-QMmU-40" value="" style="endArrow=classic;startArrow=classic;html=1;rounded=0;" parent="1" edge="1">
          <mxGeometry width="50" height="50" relative="1" as="geometry">
            <mxPoint x="280" y="610" as="sourcePoint" />
            <mxPoint x="360" y="610" as="targetPoint" />
          </mxGeometry>
        </mxCell>
        <mxCell id="gEmSKo7o0tkbMqz-QMmU-42" style="edgeStyle=orthogonalEdgeStyle;rounded=0;orthogonalLoop=1;jettySize=auto;html=1;exitX=0;exitY=0.5;exitDx=0;exitDy=0;" parent="1" source="gEmSKo7o0tkbMqz-QMmU-41" edge="1">
          <mxGeometry relative="1" as="geometry">
            <mxPoint x="320" y="610" as="targetPoint" />
          </mxGeometry>
        </mxCell>
        <mxCell id="gEmSKo7o0tkbMqz-QMmU-41" value="rightGap" style="text;html=1;align=center;verticalAlign=middle;whiteSpace=wrap;rounded=0;" parent="1" vertex="1">
          <mxGeometry x="350" y="580" width="60" height="20" as="geometry" />
        </mxCell>
        <mxCell id="w6jdOZfri21kQHFIc1Y5-1" value="" style="endArrow=classic;startArrow=classic;html=1;rounded=0;" parent="1" edge="1">
          <mxGeometry width="50" height="50" relative="1" as="geometry">
            <mxPoint x="200" y="780" as="sourcePoint" />
            <mxPoint x="310" y="780" as="targetPoint" />
          </mxGeometry>
        </mxCell>
        <mxCell id="w6jdOZfri21kQHFIc1Y5-4" style="edgeStyle=orthogonalEdgeStyle;rounded=0;orthogonalLoop=1;jettySize=auto;html=1;exitX=0.5;exitY=0;exitDx=0;exitDy=0;" parent="1" source="w6jdOZfri21kQHFIc1Y5-3" edge="1">
          <mxGeometry relative="1" as="geometry">
            <mxPoint x="255.1379310344828" y="780" as="targetPoint" />
          </mxGeometry>
        </mxCell>
        <mxCell id="w6jdOZfri21kQHFIc1Y5-3" value="vacantSpace" style="text;html=1;align=center;verticalAlign=middle;whiteSpace=wrap;rounded=0;" parent="1" vertex="1">
          <mxGeometry x="200" y="810" width="110" height="20" as="geometry" />
        </mxCell>
        <mxCell id="GuXa9qta08DSwLOWPDtN-1" value="" style="endArrow=classic;startArrow=classic;html=1;rounded=0;" parent="1" edge="1">
          <mxGeometry width="50" height="50" relative="1" as="geometry">
            <mxPoint x="120" y="890" as="sourcePoint" />
            <mxPoint x="170" y="890" as="targetPoint" />
          </mxGeometry>
        </mxCell>
        <mxCell id="GuXa9qta08DSwLOWPDtN-2" style="edgeStyle=orthogonalEdgeStyle;rounded=0;orthogonalLoop=1;jettySize=auto;html=1;exitX=0.5;exitY=0;exitDx=0;exitDy=0;" parent="1" source="GuXa9qta08DSwLOWPDtN-3" edge="1">
          <mxGeometry relative="1" as="geometry">
            <mxPoint x="150" y="890" as="targetPoint" />
            <Array as="points">
              <mxPoint x="150" y="920" />
              <mxPoint x="150" y="920" />
            </Array>
          </mxGeometry>
        </mxCell>
        <mxCell id="GuXa9qta08DSwLOWPDtN-3" value="vacantLeftWidth" style="text;html=1;align=center;verticalAlign=middle;whiteSpace=wrap;rounded=0;" parent="1" vertex="1">
          <mxGeometry x="120" y="930" width="60" height="20" as="geometry" />
        </mxCell>
        <mxCell id="GuXa9qta08DSwLOWPDtN-4" value="" style="endArrow=classic;startArrow=classic;html=1;rounded=0;" parent="1" edge="1">
          <mxGeometry width="50" height="50" relative="1" as="geometry">
            <mxPoint x="280" y="890" as="sourcePoint" />
            <mxPoint x="320" y="890" as="targetPoint" />
          </mxGeometry>
        </mxCell>
        <mxCell id="GuXa9qta08DSwLOWPDtN-5" style="edgeStyle=orthogonalEdgeStyle;rounded=0;orthogonalLoop=1;jettySize=auto;html=1;exitX=0.5;exitY=0;exitDx=0;exitDy=0;" parent="1" source="GuXa9qta08DSwLOWPDtN-6" edge="1">
          <mxGeometry relative="1" as="geometry">
            <mxPoint x="300" y="890" as="targetPoint" />
            <Array as="points">
              <mxPoint x="350" y="920" />
              <mxPoint x="300" y="920" />
            </Array>
          </mxGeometry>
        </mxCell>
        <mxCell id="GuXa9qta08DSwLOWPDtN-6" value="leftGap&lt;div&gt;/ vacantLeftWidth&lt;/div&gt;" style="text;html=1;align=center;verticalAlign=middle;whiteSpace=wrap;rounded=0;" parent="1" vertex="1">
          <mxGeometry x="300" y="930" width="100" height="20" as="geometry" />
        </mxCell>
        <mxCell id="GuXa9qta08DSwLOWPDtN-7" value="" style="endArrow=classic;startArrow=classic;html=1;rounded=0;" parent="1" edge="1">
          <mxGeometry width="50" height="50" relative="1" as="geometry">
            <mxPoint x="230" y="890" as="sourcePoint" />
            <mxPoint x="280" y="890" as="targetPoint" />
          </mxGeometry>
        </mxCell>
        <mxCell id="GuXa9qta08DSwLOWPDtN-8" style="edgeStyle=orthogonalEdgeStyle;rounded=0;orthogonalLoop=1;jettySize=auto;html=1;exitX=0.5;exitY=0;exitDx=0;exitDy=0;" parent="1" source="GuXa9qta08DSwLOWPDtN-9" edge="1">
          <mxGeometry relative="1" as="geometry">
            <mxPoint x="250" y="890" as="targetPoint" />
            <Array as="points">
              <mxPoint x="250" y="920" />
              <mxPoint x="250" y="920" />
            </Array>
          </mxGeometry>
        </mxCell>
        <mxCell id="GuXa9qta08DSwLOWPDtN-9" value="vacantRightWidth" style="text;html=1;align=center;verticalAlign=middle;whiteSpace=wrap;rounded=0;" parent="1" vertex="1">
          <mxGeometry x="220" y="930" width="60" height="20" as="geometry" />
        </mxCell>
        <mxCell id="GuXa9qta08DSwLOWPDtN-22" value="" style="rounded=0;whiteSpace=wrap;html=1;fillColor=#d5e8d4;strokeColor=#82b366;" parent="1" vertex="1">
          <mxGeometry x="480" y="840" width="160" height="10" as="geometry" />
        </mxCell>
        <mxCell id="GuXa9qta08DSwLOWPDtN-25" value="" style="rounded=0;whiteSpace=wrap;html=1;fillColor=#d5e8d4;strokeColor=#82b366;" parent="1" vertex="1">
          <mxGeometry x="480" y="840" width="160" height="10" as="geometry" />
        </mxCell>
        <mxCell id="GuXa9qta08DSwLOWPDtN-26" value="" style="rounded=0;whiteSpace=wrap;html=1;fillColor=#f8cecc;strokeColor=#b85450;" parent="1" vertex="1">
          <mxGeometry x="540" y="850" width="60" height="30" as="geometry" />
        </mxCell>
        <mxCell id="GuXa9qta08DSwLOWPDtN-27" value="" style="rounded=0;whiteSpace=wrap;html=1;fillColor=#d5e8d4;strokeColor=#82b366;" parent="1" vertex="1">
          <mxGeometry x="640" y="840" width="120" height="10" as="geometry" />
        </mxCell>
        <mxCell id="GuXa9qta08DSwLOWPDtN-28" value="" style="rounded=0;whiteSpace=wrap;html=1;fillColor=#f8cecc;strokeColor=#b85450;" parent="1" vertex="1">
          <mxGeometry x="660" y="850" width="40" height="30" as="geometry" />
        </mxCell>
        <mxCell id="GuXa9qta08DSwLOWPDtN-34" value="" style="rounded=0;whiteSpace=wrap;html=1;fillColor=#fff2cc;strokeColor=#d6b656;" parent="1" vertex="1">
          <mxGeometry x="480" y="850" width="60" height="30" as="geometry" />
        </mxCell>
        <mxCell id="GuXa9qta08DSwLOWPDtN-35" value="" style="rounded=0;whiteSpace=wrap;html=1;fillColor=#fff2cc;strokeColor=#d6b656;" parent="1" vertex="1">
          <mxGeometry x="600" y="850" width="60" height="30" as="geometry" />
        </mxCell>
        <mxCell id="GuXa9qta08DSwLOWPDtN-36" value="" style="rounded=0;whiteSpace=wrap;html=1;fillColor=#fff2cc;strokeColor=#d6b656;" parent="1" vertex="1">
          <mxGeometry x="700" y="850" width="60" height="30" as="geometry" />
        </mxCell>
        <mxCell id="XYDFu7d768vyLkIl0Vmx-1" value="" style="rounded=0;whiteSpace=wrap;html=1;fillColor=#f8cecc;strokeColor=#b85450;dashed=1;" parent="1" vertex="1">
          <mxGeometry x="680" y="880" width="40" height="30" as="geometry" />
        </mxCell>
        <mxCell id="JFR7rvm5DQZxju3a2gFx-39" value="" style="rounded=0;whiteSpace=wrap;html=1;fillColor=#d5e8d4;strokeColor=#82b366;" parent="1" vertex="1">
          <mxGeometry x="300" y="1060" width="200" height="10" as="geometry" />
        </mxCell>
        <mxCell id="JFR7rvm5DQZxju3a2gFx-41" value="" style="rounded=0;whiteSpace=wrap;html=1;fillColor=#d5e8d4;strokeColor=#82b366;" parent="1" vertex="1">
          <mxGeometry x="80" y="1060" width="160" height="10" as="geometry" />
        </mxCell>
        <mxCell id="JFR7rvm5DQZxju3a2gFx-43" value="" style="rounded=0;whiteSpace=wrap;html=1;fillColor=#f8cecc;strokeColor=#b85450;" parent="1" vertex="1">
          <mxGeometry x="100" y="1070" width="120" height="30" as="geometry" />
        </mxCell>
        <mxCell id="JFR7rvm5DQZxju3a2gFx-45" value="" style="rounded=0;whiteSpace=wrap;html=1;fillColor=#f8cecc;strokeColor=#b85450;" parent="1" vertex="1">
          <mxGeometry x="360" y="1070" width="80" height="30" as="geometry" />
        </mxCell>
        <mxCell id="JFR7rvm5DQZxju3a2gFx-47" style="edgeStyle=orthogonalEdgeStyle;rounded=0;orthogonalLoop=1;jettySize=auto;html=1;exitX=0.5;exitY=0;exitDx=0;exitDy=0;" parent="1" source="JFR7rvm5DQZxju3a2gFx-48" edge="1">
          <mxGeometry relative="1" as="geometry">
            <mxPoint x="230" y="1130" as="targetPoint" />
            <mxPoint x="130" y="1160" as="sourcePoint" />
            <Array as="points">
              <mxPoint x="190" y="1150" />
              <mxPoint x="230" y="1150" />
            </Array>
          </mxGeometry>
        </mxCell>
        <mxCell id="JFR7rvm5DQZxju3a2gFx-48" value="lostLeftWidth" style="text;html=1;align=center;verticalAlign=middle;whiteSpace=wrap;rounded=0;" parent="1" vertex="1">
          <mxGeometry x="160" y="1160" width="60" height="20" as="geometry" />
        </mxCell>
        <mxCell id="JFR7rvm5DQZxju3a2gFx-49" value="" style="endArrow=classic;startArrow=classic;html=1;rounded=0;" parent="1" edge="1">
          <mxGeometry width="50" height="50" relative="1" as="geometry">
            <mxPoint x="220" y="1130" as="sourcePoint" />
            <mxPoint x="240" y="1130" as="targetPoint" />
          </mxGeometry>
        </mxCell>
        <mxCell id="JFR7rvm5DQZxju3a2gFx-51" value="vacantLeftWidth = 0" style="text;html=1;align=center;verticalAlign=middle;whiteSpace=wrap;rounded=0;" parent="1" vertex="1">
          <mxGeometry x="60" y="1200" width="120" height="20" as="geometry" />
        </mxCell>
        <mxCell id="JFR7rvm5DQZxju3a2gFx-52" value="" style="endArrow=classic;startArrow=classic;html=1;rounded=0;" parent="1" edge="1">
          <mxGeometry width="50" height="50" relative="1" as="geometry">
            <mxPoint x="220" y="1120" as="sourcePoint" />
            <mxPoint x="340" y="1120" as="targetPoint" />
          </mxGeometry>
        </mxCell>
        <mxCell id="JFR7rvm5DQZxju3a2gFx-53" style="edgeStyle=orthogonalEdgeStyle;rounded=0;orthogonalLoop=1;jettySize=auto;html=1;exitX=0.5;exitY=0;exitDx=0;exitDy=0;" parent="1" source="JFR7rvm5DQZxju3a2gFx-54" edge="1">
          <mxGeometry relative="1" as="geometry">
            <mxPoint x="280" y="1120" as="targetPoint" />
          </mxGeometry>
        </mxCell>
        <mxCell id="JFR7rvm5DQZxju3a2gFx-54" value="footTextWidth" style="text;html=1;align=center;verticalAlign=middle;whiteSpace=wrap;rounded=0;" parent="1" vertex="1">
          <mxGeometry x="250" y="1160" width="60" height="20" as="geometry" />
        </mxCell>
        <mxCell id="JFR7rvm5DQZxju3a2gFx-55" style="edgeStyle=orthogonalEdgeStyle;rounded=0;orthogonalLoop=1;jettySize=auto;html=1;exitX=0.5;exitY=1;exitDx=0;exitDy=0;" parent="1" source="JFR7rvm5DQZxju3a2gFx-56" edge="1">
          <mxGeometry relative="1" as="geometry">
            <mxPoint x="280" y="1040" as="targetPoint" />
            <Array as="points">
              <mxPoint x="280" y="1030" />
            </Array>
          </mxGeometry>
        </mxCell>
        <mxCell id="JFR7rvm5DQZxju3a2gFx-56" value="headTextWidth" style="text;html=1;align=center;verticalAlign=middle;whiteSpace=wrap;rounded=0;" parent="1" vertex="1">
          <mxGeometry x="250" y="1000" width="60" height="20" as="geometry" />
        </mxCell>
        <mxCell id="JFR7rvm5DQZxju3a2gFx-57" value="" style="endArrow=classic;startArrow=classic;html=1;rounded=0;" parent="1" edge="1">
          <mxGeometry width="50" height="50" relative="1" as="geometry">
            <mxPoint x="260" y="1040" as="sourcePoint" />
            <mxPoint x="300" y="1040" as="targetPoint" />
          </mxGeometry>
        </mxCell>
        <mxCell id="JFR7rvm5DQZxju3a2gFx-62" value="lostRightWidth = 0&lt;br&gt;vacantRightWidth = 0" style="text;html=1;align=center;verticalAlign=middle;whiteSpace=wrap;rounded=0;" parent="1" vertex="1">
          <mxGeometry x="380" y="1200" width="120" height="20" as="geometry" />
        </mxCell>
        <mxCell id="JFR7rvm5DQZxju3a2gFx-64" value="" style="endArrow=none;html=1;rounded=0;" parent="1" edge="1">
          <mxGeometry width="50" height="50" relative="1" as="geometry">
            <mxPoint x="240" y="1110" as="sourcePoint" />
            <mxPoint x="240" y="1070" as="targetPoint" />
          </mxGeometry>
        </mxCell>
        <mxCell id="JFR7rvm5DQZxju3a2gFx-65" value="" style="endArrow=none;html=1;rounded=0;" parent="1" edge="1">
          <mxGeometry width="50" height="50" relative="1" as="geometry">
            <mxPoint x="340" y="1110" as="sourcePoint" />
            <mxPoint x="340" y="1070" as="targetPoint" />
          </mxGeometry>
        </mxCell>
        <mxCell id="JFR7rvm5DQZxju3a2gFx-66" value="" style="endArrow=classic;startArrow=classic;html=1;rounded=0;" parent="1" edge="1">
          <mxGeometry width="50" height="50" relative="1" as="geometry">
            <mxPoint x="220" y="1030" as="sourcePoint" />
            <mxPoint x="260" y="1030" as="targetPoint" />
          </mxGeometry>
        </mxCell>
        <mxCell id="JFR7rvm5DQZxju3a2gFx-67" style="edgeStyle=orthogonalEdgeStyle;rounded=0;orthogonalLoop=1;jettySize=auto;html=1;exitX=1;exitY=0.5;exitDx=0;exitDy=0;" parent="1" source="JFR7rvm5DQZxju3a2gFx-68" edge="1">
          <mxGeometry relative="1" as="geometry">
            <mxPoint x="230" y="1030" as="targetPoint" />
          </mxGeometry>
        </mxCell>
        <mxCell id="JFR7rvm5DQZxju3a2gFx-68" value="leftGap" style="text;html=1;align=center;verticalAlign=middle;whiteSpace=wrap;rounded=0;" parent="1" vertex="1">
          <mxGeometry x="130" y="1000" width="60" height="20" as="geometry" />
        </mxCell>
        <mxCell id="JFR7rvm5DQZxju3a2gFx-69" value="" style="endArrow=classic;startArrow=classic;html=1;rounded=0;" parent="1" edge="1">
          <mxGeometry width="50" height="50" relative="1" as="geometry">
            <mxPoint x="300" y="1030" as="sourcePoint" />
            <mxPoint x="340" y="1030" as="targetPoint" />
          </mxGeometry>
        </mxCell>
        <mxCell id="JFR7rvm5DQZxju3a2gFx-70" style="edgeStyle=orthogonalEdgeStyle;rounded=0;orthogonalLoop=1;jettySize=auto;html=1;exitX=0;exitY=0.5;exitDx=0;exitDy=0;" parent="1" source="JFR7rvm5DQZxju3a2gFx-71" edge="1">
          <mxGeometry relative="1" as="geometry">
            <mxPoint x="330" y="1030" as="targetPoint" />
          </mxGeometry>
        </mxCell>
        <mxCell id="JFR7rvm5DQZxju3a2gFx-71" value="rightGap" style="text;html=1;align=center;verticalAlign=middle;whiteSpace=wrap;rounded=0;" parent="1" vertex="1">
          <mxGeometry x="370" y="1000" width="60" height="20" as="geometry" />
        </mxCell>
        <mxCell id="JFR7rvm5DQZxju3a2gFx-72" value="" style="endArrow=classic;startArrow=classic;html=1;rounded=0;" parent="1" edge="1">
          <mxGeometry width="50" height="50" relative="1" as="geometry">
            <mxPoint x="220" y="1200" as="sourcePoint" />
            <mxPoint x="340" y="1200" as="targetPoint" />
          </mxGeometry>
        </mxCell>
        <mxCell id="JFR7rvm5DQZxju3a2gFx-73" style="edgeStyle=orthogonalEdgeStyle;rounded=0;orthogonalLoop=1;jettySize=auto;html=1;exitX=0.5;exitY=0;exitDx=0;exitDy=0;" parent="1" source="JFR7rvm5DQZxju3a2gFx-74" edge="1">
          <mxGeometry relative="1" as="geometry">
            <mxPoint x="280" y="1200" as="targetPoint" />
            <Array as="points">
              <mxPoint x="280" y="1220" />
              <mxPoint x="280" y="1220" />
            </Array>
          </mxGeometry>
        </mxCell>
        <mxCell id="JFR7rvm5DQZxju3a2gFx-74" value="vacantSpace" style="text;html=1;align=center;verticalAlign=middle;whiteSpace=wrap;rounded=0;" parent="1" vertex="1">
          <mxGeometry x="220" y="1230" width="120" height="20" as="geometry" />
        </mxCell>
        <mxCell id="JFR7rvm5DQZxju3a2gFx-76" value="" style="rounded=0;whiteSpace=wrap;html=1;fillColor=#d5e8d4;strokeColor=#82b366;" parent="1" vertex="1">
          <mxGeometry x="260" y="1060" width="40" height="10" as="geometry" />
        </mxCell>
        <mxCell id="JFR7rvm5DQZxju3a2gFx-44" value="" style="rounded=0;whiteSpace=wrap;html=1;fillColor=#f8cecc;strokeColor=#b85450;" parent="1" vertex="1">
          <mxGeometry x="220" y="1070" width="120" height="30" as="geometry" />
        </mxCell>
        <mxCell id="JFR7rvm5DQZxju3a2gFx-79" value="" style="rounded=0;whiteSpace=wrap;html=1;fillColor=#dae8fc;strokeColor=#6c8ebf;" parent="1" vertex="1">
          <mxGeometry x="340" y="1070" width="20" height="30" as="geometry" />
        </mxCell>
        <mxCell id="JFR7rvm5DQZxju3a2gFx-80" value="" style="endArrow=classic;startArrow=classic;html=1;rounded=0;fillColor=#ffe6cc;strokeColor=#d79b00;" parent="1" edge="1">
          <mxGeometry width="50" height="50" relative="1" as="geometry">
            <mxPoint x="200" y="690" as="sourcePoint" />
            <mxPoint x="360" y="690" as="targetPoint" />
          </mxGeometry>
        </mxCell>
        <mxCell id="JFR7rvm5DQZxju3a2gFx-81" value="" style="endArrow=classic;startArrow=classic;html=1;rounded=0;fillColor=#ffe6cc;strokeColor=#d79b00;" parent="1" edge="1">
          <mxGeometry width="50" height="50" relative="1" as="geometry">
            <mxPoint x="240" y="1110" as="sourcePoint" />
            <mxPoint x="340" y="1110" as="targetPoint" />
          </mxGeometry>
        </mxCell>
        <mxCell id="JFR7rvm5DQZxju3a2gFx-82" value="" style="endArrow=classic;startArrow=classic;html=1;rounded=0;fillColor=#dae8fc;strokeColor=#6c8ebf;" parent="1" edge="1">
          <mxGeometry width="50" height="50" relative="1" as="geometry">
            <mxPoint x="20" y="500" as="sourcePoint" />
            <mxPoint x="180" y="500" as="targetPoint" />
          </mxGeometry>
        </mxCell>
        <mxCell id="JFR7rvm5DQZxju3a2gFx-83" value="" style="endArrow=classic;startArrow=classic;html=1;rounded=0;fillColor=#ffe6cc;strokeColor=#d79b00;" parent="1" edge="1">
          <mxGeometry width="50" height="50" relative="1" as="geometry">
            <mxPoint x="400" y="380" as="sourcePoint" />
            <mxPoint x="440" y="380" as="targetPoint" />
            <Array as="points" />
          </mxGeometry>
        </mxCell>
        <mxCell id="JFR7rvm5DQZxju3a2gFx-85" value="" style="endArrow=classic;startArrow=classic;html=1;rounded=0;fillColor=#dae8fc;strokeColor=#6c8ebf;" parent="1" edge="1">
          <mxGeometry width="50" height="50" relative="1" as="geometry">
            <mxPoint x="400" y="400" as="sourcePoint" />
            <mxPoint x="440" y="400" as="targetPoint" />
            <Array as="points" />
          </mxGeometry>
        </mxCell>
        <mxCell id="JFR7rvm5DQZxju3a2gFx-86" value="Token Width" style="text;html=1;align=center;verticalAlign=middle;whiteSpace=wrap;rounded=0;" parent="1" vertex="1">
          <mxGeometry x="440" y="370" width="120" height="20" as="geometry" />
        </mxCell>
        <mxCell id="JFR7rvm5DQZxju3a2gFx-87" value="Token Bound Width" style="text;html=1;align=center;verticalAlign=middle;whiteSpace=wrap;rounded=0;" parent="1" vertex="1">
          <mxGeometry x="440" y="390" width="120" height="20" as="geometry" />
        </mxCell>
        <mxCell id="JFR7rvm5DQZxju3a2gFx-88" value="" style="endArrow=classic;startArrow=classic;html=1;rounded=0;fillColor=#dae8fc;strokeColor=#6c8ebf;" parent="1" edge="1">
          <mxGeometry width="50" height="50" relative="1" as="geometry">
            <mxPoint x="180" y="500" as="sourcePoint" />
            <mxPoint x="280" y="500" as="targetPoint" />
          </mxGeometry>
        </mxCell>
        <mxCell id="JFR7rvm5DQZxju3a2gFx-89" value="" style="endArrow=classic;startArrow=classic;html=1;rounded=0;fillColor=#dae8fc;strokeColor=#6c8ebf;" parent="1" edge="1">
          <mxGeometry width="50" height="50" relative="1" as="geometry">
            <mxPoint x="250" y="510" as="sourcePoint" />
            <mxPoint x="370" y="510" as="targetPoint" />
          </mxGeometry>
        </mxCell>
        <mxCell id="JFR7rvm5DQZxju3a2gFx-90" value="" style="endArrow=classic;startArrow=classic;html=1;rounded=0;fillColor=#dae8fc;strokeColor=#6c8ebf;" parent="1" edge="1">
          <mxGeometry width="50" height="50" relative="1" as="geometry">
            <mxPoint x="370" y="500" as="sourcePoint" />
            <mxPoint x="490" y="500" as="targetPoint" />
          </mxGeometry>
        </mxCell>
        <mxCell id="JFR7rvm5DQZxju3a2gFx-91" value="" style="endArrow=classic;startArrow=classic;html=1;rounded=0;fillColor=#dae8fc;strokeColor=#6c8ebf;" parent="1" edge="1">
          <mxGeometry width="50" height="50" relative="1" as="geometry">
            <mxPoint x="470" y="510" as="sourcePoint" />
            <mxPoint x="570" y="510" as="targetPoint" />
          </mxGeometry>
        </mxCell>
        <mxCell id="JFR7rvm5DQZxju3a2gFx-92" value="" style="endArrow=classic;startArrow=classic;html=1;rounded=0;fillColor=#dae8fc;strokeColor=#6c8ebf;" parent="1" edge="1">
          <mxGeometry width="50" height="50" relative="1" as="geometry">
            <mxPoint x="550" y="500" as="sourcePoint" />
            <mxPoint x="670" y="500" as="targetPoint" />
          </mxGeometry>
        </mxCell>
        <mxCell id="JFR7rvm5DQZxju3a2gFx-93" value="" style="endArrow=classic;startArrow=classic;html=1;rounded=0;fillColor=#dae8fc;strokeColor=#6c8ebf;" parent="1" edge="1">
          <mxGeometry width="50" height="50" relative="1" as="geometry">
            <mxPoint x="650" y="510" as="sourcePoint" />
            <mxPoint x="810" y="510" as="targetPoint" />
          </mxGeometry>
        </mxCell>
        <mxCell id="wFVOafJcGhM1HYB9Wg4c-1" value="" style="rounded=0;whiteSpace=wrap;html=1;fillColor=#f8cecc;strokeColor=#b85450;dashed=1;" parent="1" vertex="1">
          <mxGeometry x="640" y="680" width="40" height="30" as="geometry" />
        </mxCell>
        <mxCell id="wFVOafJcGhM1HYB9Wg4c-2" value="Rebalance tactic 1" style="text;html=1;align=center;verticalAlign=middle;whiteSpace=wrap;rounded=0;" parent="1" vertex="1">
          <mxGeometry x="600" y="735" width="120" height="25" as="geometry" />
        </mxCell>
        <mxCell id="wFVOafJcGhM1HYB9Wg4c-3" value="Rebalance tactic 2" style="text;html=1;align=center;verticalAlign=middle;whiteSpace=wrap;rounded=0;" parent="1" vertex="1">
          <mxGeometry x="600" y="935" width="120" height="25" as="geometry" />
        </mxCell>
        <mxCell id="oGjxpW9Gsk3kbgYax0MG-1" value="" style="rounded=0;whiteSpace=wrap;html=1;fillColor=#d5e8d4;strokeColor=#82b366;" parent="1" vertex="1">
          <mxGeometry x="160" y="60" width="40" height="10" as="geometry" />
        </mxCell>
        <mxCell id="oGjxpW9Gsk3kbgYax0MG-2" value="" style="rounded=0;whiteSpace=wrap;html=1;fillColor=#ffe6cc;strokeColor=#d79b00;" parent="1" vertex="1">
          <mxGeometry x="200" y="60" width="80" height="10" as="geometry" />
        </mxCell>
        <mxCell id="oGjxpW9Gsk3kbgYax0MG-3" value="" style="rounded=0;whiteSpace=wrap;html=1;fillColor=#ffe6cc;strokeColor=#d79b00;" parent="1" vertex="1">
          <mxGeometry x="300" y="60" width="80" height="10" as="geometry" />
        </mxCell>
        <mxCell id="oGjxpW9Gsk3kbgYax0MG-4" value="" style="rounded=0;whiteSpace=wrap;html=1;fillColor=#ffe6cc;strokeColor=#d79b00;" parent="1" vertex="1">
          <mxGeometry x="400" y="60" width="80" height="10" as="geometry" />
        </mxCell>
        <mxCell id="oGjxpW9Gsk3kbgYax0MG-5" value="" style="rounded=0;whiteSpace=wrap;html=1;fillColor=#fff2cc;strokeColor=#d6b656;" parent="1" vertex="1">
          <mxGeometry x="280" y="60" width="20" height="10" as="geometry" />
        </mxCell>
        <mxCell id="oGjxpW9Gsk3kbgYax0MG-6" value="" style="rounded=0;whiteSpace=wrap;html=1;fillColor=#fff2cc;strokeColor=#d6b656;" parent="1" vertex="1">
          <mxGeometry x="380" y="60" width="20" height="10" as="geometry" />
        </mxCell>
        <mxCell id="oGjxpW9Gsk3kbgYax0MG-7" value="" style="rounded=0;whiteSpace=wrap;html=1;fillColor=#d5e8d4;strokeColor=#82b366;" parent="1" vertex="1">
          <mxGeometry x="480" y="60" width="40" height="10" as="geometry" />
        </mxCell>
        <mxCell id="oGjxpW9Gsk3kbgYax0MG-8" value="center" style="text;html=1;align=center;verticalAlign=middle;whiteSpace=wrap;rounded=0;" parent="1" vertex="1">
          <mxGeometry x="40" y="60" width="80" height="20" as="geometry" />
        </mxCell>
        <mxCell id="oGjxpW9Gsk3kbgYax0MG-9" value="" style="rounded=0;whiteSpace=wrap;html=1;fillColor=#fff2cc;strokeColor=#d6b656;" parent="1" vertex="1">
          <mxGeometry x="160" y="100" width="40" height="10" as="geometry" />
        </mxCell>
        <mxCell id="oGjxpW9Gsk3kbgYax0MG-10" value="" style="rounded=0;whiteSpace=wrap;html=1;fillColor=#ffe6cc;strokeColor=#d79b00;" parent="1" vertex="1">
          <mxGeometry x="200" y="100" width="80" height="10" as="geometry" />
        </mxCell>
        <mxCell id="oGjxpW9Gsk3kbgYax0MG-11" value="" style="rounded=0;whiteSpace=wrap;html=1;fillColor=#ffe6cc;strokeColor=#d79b00;" parent="1" vertex="1">
          <mxGeometry x="320" y="100" width="80" height="10" as="geometry" />
        </mxCell>
        <mxCell id="oGjxpW9Gsk3kbgYax0MG-12" value="" style="rounded=0;whiteSpace=wrap;html=1;fillColor=#ffe6cc;strokeColor=#d79b00;" parent="1" vertex="1">
          <mxGeometry x="440" y="100" width="80" height="10" as="geometry" />
        </mxCell>
        <mxCell id="oGjxpW9Gsk3kbgYax0MG-13" value="" style="rounded=0;whiteSpace=wrap;html=1;fillColor=#fff2cc;strokeColor=#d6b656;" parent="1" vertex="1">
          <mxGeometry x="280" y="100" width="40" height="10" as="geometry" />
        </mxCell>
        <mxCell id="oGjxpW9Gsk3kbgYax0MG-14" value="" style="rounded=0;whiteSpace=wrap;html=1;fillColor=#fff2cc;strokeColor=#d6b656;" parent="1" vertex="1">
          <mxGeometry x="400" y="100" width="40" height="10" as="geometry" />
        </mxCell>
        <mxCell id="oGjxpW9Gsk3kbgYax0MG-15" value="" style="rounded=0;whiteSpace=wrap;html=1;fillColor=#fff2cc;strokeColor=#d6b656;" parent="1" vertex="1">
          <mxGeometry x="520" y="100" width="40" height="10" as="geometry" />
        </mxCell>
        <mxCell id="oGjxpW9Gsk3kbgYax0MG-16" value="space-around" style="text;html=1;align=center;verticalAlign=middle;whiteSpace=wrap;rounded=0;" parent="1" vertex="1">
          <mxGeometry x="40" y="100" width="80" height="20" as="geometry" />
        </mxCell>
        <mxCell id="oGjxpW9Gsk3kbgYax0MG-17" value="" style="rounded=0;whiteSpace=wrap;html=1;fillColor=#d5e8d4;strokeColor=#82b366;" parent="1" vertex="1">
          <mxGeometry x="600" y="60" width="40" height="10" as="geometry" />
        </mxCell>
        <mxCell id="oGjxpW9Gsk3kbgYax0MG-18" value="" style="rounded=0;whiteSpace=wrap;html=1;fillColor=#ffe6cc;strokeColor=#d79b00;" parent="1" vertex="1">
          <mxGeometry x="600" y="80" width="40" height="10" as="geometry" />
        </mxCell>
        <mxCell id="oGjxpW9Gsk3kbgYax0MG-19" value="" style="rounded=0;whiteSpace=wrap;html=1;fillColor=#fff2cc;strokeColor=#d6b656;" parent="1" vertex="1">
          <mxGeometry x="600" y="100" width="40" height="10" as="geometry" />
        </mxCell>
        <mxCell id="oGjxpW9Gsk3kbgYax0MG-20" value="padding" style="text;html=1;align=center;verticalAlign=middle;whiteSpace=wrap;rounded=0;" parent="1" vertex="1">
          <mxGeometry x="640" y="60" width="80" height="10" as="geometry" />
        </mxCell>
        <mxCell id="oGjxpW9Gsk3kbgYax0MG-21" value="letter" style="text;html=1;align=center;verticalAlign=middle;whiteSpace=wrap;rounded=0;" parent="1" vertex="1">
          <mxGeometry x="640" y="80" width="80" height="10" as="geometry" />
        </mxCell>
        <mxCell id="oGjxpW9Gsk3kbgYax0MG-22" value="spacing" style="text;html=1;align=center;verticalAlign=middle;whiteSpace=wrap;rounded=0;" parent="1" vertex="1">
          <mxGeometry x="640" y="100" width="80" height="10" as="geometry" />
        </mxCell>
      </root>
    </mxGraphModel>
  </diagram>
  <diagram id="A0-l4KIgrJyOgAlPobP1" name="Card">
    <mxGraphModel dx="276" dy="143" grid="1" gridSize="10" guides="1" tooltips="1" connect="1" arrows="1" fold="1" page="1" pageScale="1" pageWidth="827" pageHeight="1169" math="0" shadow="0">
      <root>
        <mxCell id="0" />
        <mxCell id="1" parent="0" />
        <mxCell id="DOpNdLVJ5_OpFMp81w0Q-16" value="" style="rounded=0;whiteSpace=wrap;html=1;" vertex="1" parent="1">
          <mxGeometry x="190" y="380" width="100" height="70" as="geometry" />
        </mxCell>
        <mxCell id="DOpNdLVJ5_OpFMp81w0Q-1" value="" style="rounded=0;whiteSpace=wrap;html=1;" vertex="1" parent="1">
          <mxGeometry x="80" y="80" width="140" height="200" as="geometry" />
        </mxCell>
        <mxCell id="DOpNdLVJ5_OpFMp81w0Q-3" value="" style="rounded=0;whiteSpace=wrap;html=1;" vertex="1" parent="1">
          <mxGeometry x="90" y="120" width="120" height="100" as="geometry" />
        </mxCell>
        <mxCell id="DOpNdLVJ5_OpFMp81w0Q-4" value="" style="endArrow=classic;startArrow=classic;html=1;rounded=0;" edge="1" parent="1">
          <mxGeometry width="50" height="50" relative="1" as="geometry">
            <mxPoint x="80" y="60" as="sourcePoint" />
            <mxPoint x="220" y="60" as="targetPoint" />
          </mxGeometry>
        </mxCell>
        <mxCell id="DOpNdLVJ5_OpFMp81w0Q-6" value="&lt;span style=&quot;font-size: 12px; text-wrap-mode: wrap; background-color: rgb(251, 251, 251);&quot;&gt;card width&lt;/span&gt;" style="edgeLabel;html=1;align=center;verticalAlign=middle;resizable=0;points=[];" vertex="1" connectable="0" parent="DOpNdLVJ5_OpFMp81w0Q-4">
          <mxGeometry x="-0.0143" relative="1" as="geometry">
            <mxPoint as="offset" />
          </mxGeometry>
        </mxCell>
        <mxCell id="DOpNdLVJ5_OpFMp81w0Q-7" value="card art width" style="endArrow=classic;startArrow=classic;html=1;rounded=0;" edge="1" parent="1">
          <mxGeometry width="50" height="50" relative="1" as="geometry">
            <mxPoint x="90" y="110" as="sourcePoint" />
            <mxPoint x="210" y="110" as="targetPoint" />
          </mxGeometry>
        </mxCell>
        <mxCell id="DOpNdLVJ5_OpFMp81w0Q-9" value="" style="rounded=0;whiteSpace=wrap;html=1;" vertex="1" parent="1">
          <mxGeometry x="80" y="520" width="200" height="160" as="geometry" />
        </mxCell>
        <mxCell id="DOpNdLVJ5_OpFMp81w0Q-10" value="image width" style="endArrow=classic;startArrow=classic;html=1;rounded=0;" edge="1" parent="1">
          <mxGeometry width="50" height="50" relative="1" as="geometry">
            <mxPoint x="80" y="500" as="sourcePoint" />
            <mxPoint x="280" y="500" as="targetPoint" />
          </mxGeometry>
        </mxCell>
        <mxCell id="DOpNdLVJ5_OpFMp81w0Q-11" value="" style="rounded=0;whiteSpace=wrap;html=1;dashed=1;" vertex="1" parent="1">
          <mxGeometry x="100" y="600" width="100" height="60" as="geometry" />
        </mxCell>
        <mxCell id="DOpNdLVJ5_OpFMp81w0Q-12" value="cropped width" style="endArrow=classic;startArrow=classic;html=1;rounded=0;" edge="1" parent="1">
          <mxGeometry width="50" height="50" relative="1" as="geometry">
            <mxPoint x="100" y="590" as="sourcePoint" />
            <mxPoint x="200" y="590" as="targetPoint" />
          </mxGeometry>
        </mxCell>
        <mxCell id="DOpNdLVJ5_OpFMp81w0Q-13" value="" style="rounded=0;whiteSpace=wrap;html=1;" vertex="1" parent="1">
          <mxGeometry x="200" y="400" width="80" height="40" as="geometry" />
        </mxCell>
        <mxCell id="DOpNdLVJ5_OpFMp81w0Q-14" value="thumb art&lt;br&gt;width" style="endArrow=classic;startArrow=classic;html=1;rounded=0;" edge="1" parent="1">
          <mxGeometry width="50" height="50" relative="1" as="geometry">
            <mxPoint x="200" y="390" as="sourcePoint" />
            <mxPoint x="280" y="390" as="targetPoint" />
          </mxGeometry>
        </mxCell>
        <mxCell id="DOpNdLVJ5_OpFMp81w0Q-15" value="" style="endArrow=none;dashed=1;html=1;rounded=0;entryX=0;entryY=1;entryDx=0;entryDy=0;exitX=0;exitY=0;exitDx=0;exitDy=0;" edge="1" parent="1" source="DOpNdLVJ5_OpFMp81w0Q-16" target="DOpNdLVJ5_OpFMp81w0Q-1">
          <mxGeometry width="50" height="50" relative="1" as="geometry">
            <mxPoint x="10" y="380" as="sourcePoint" />
            <mxPoint x="60" y="330" as="targetPoint" />
          </mxGeometry>
        </mxCell>
        <mxCell id="DOpNdLVJ5_OpFMp81w0Q-17" value="thumb width" style="endArrow=classic;startArrow=classic;html=1;rounded=0;" edge="1" parent="1">
          <mxGeometry width="50" height="50" relative="1" as="geometry">
            <mxPoint x="190" y="360" as="sourcePoint" />
            <mxPoint x="290" y="360" as="targetPoint" />
          </mxGeometry>
        </mxCell>
        <mxCell id="DOpNdLVJ5_OpFMp81w0Q-18" value="" style="endArrow=none;dashed=1;html=1;rounded=0;exitX=1;exitY=1;exitDx=0;exitDy=0;entryX=1;entryY=0;entryDx=0;entryDy=0;" edge="1" parent="1" source="DOpNdLVJ5_OpFMp81w0Q-1" target="DOpNdLVJ5_OpFMp81w0Q-16">
          <mxGeometry width="50" height="50" relative="1" as="geometry">
            <mxPoint x="300" y="330" as="sourcePoint" />
            <mxPoint x="350" y="280" as="targetPoint" />
          </mxGeometry>
        </mxCell>
        <mxCell id="DOpNdLVJ5_OpFMp81w0Q-19" value="thumbToCardRatio = thumbWidth / cardWidth&lt;div style=&quot;font-size: 13px;&quot;&gt;thumbArtWidth = cardArtWidth *&amp;nbsp;&lt;span style=&quot;background-color: initial;&quot;&gt;thumbToCardRatio&lt;/span&gt;&lt;/div&gt;&lt;div style=&quot;font-size: 13px;&quot;&gt;croppedWidth = imageWidth * cropWidthPercent&lt;/div&gt;&lt;div style=&quot;font-size: 13px;&quot;&gt;&lt;br&gt;croppedLeft = imageWidth * cropLeftPercent&lt;/div&gt;" style="text;html=1;align=center;verticalAlign=middle;whiteSpace=wrap;rounded=0;fontSize=13;" vertex="1" parent="1">
          <mxGeometry x="360" y="280" width="360" height="160" as="geometry" />
        </mxCell>
        <mxCell id="DOpNdLVJ5_OpFMp81w0Q-20" value="" style="endArrow=none;dashed=1;html=1;rounded=0;entryX=0;entryY=0;entryDx=0;entryDy=0;exitX=0;exitY=1;exitDx=0;exitDy=0;" edge="1" parent="1" source="DOpNdLVJ5_OpFMp81w0Q-13" target="DOpNdLVJ5_OpFMp81w0Q-11">
          <mxGeometry width="50" height="50" relative="1" as="geometry">
            <mxPoint x="300" y="320" as="sourcePoint" />
            <mxPoint x="350" y="270" as="targetPoint" />
          </mxGeometry>
        </mxCell>
        <mxCell id="DOpNdLVJ5_OpFMp81w0Q-21" value="" style="endArrow=none;dashed=1;html=1;rounded=0;entryX=1;entryY=0;entryDx=0;entryDy=0;exitX=1;exitY=1;exitDx=0;exitDy=0;" edge="1" parent="1" source="DOpNdLVJ5_OpFMp81w0Q-13" target="DOpNdLVJ5_OpFMp81w0Q-11">
          <mxGeometry width="50" height="50" relative="1" as="geometry">
            <mxPoint x="280" y="320" as="sourcePoint" />
            <mxPoint x="330" y="270" as="targetPoint" />
          </mxGeometry>
        </mxCell>
        <mxCell id="DOpNdLVJ5_OpFMp81w0Q-24" value="" style="endArrow=classic;html=1;rounded=0;" edge="1" parent="1">
          <mxGeometry width="50" height="50" relative="1" as="geometry">
            <mxPoint x="40" y="220" as="sourcePoint" />
            <mxPoint x="80" y="180" as="targetPoint" />
          </mxGeometry>
        </mxCell>
        <mxCell id="DOpNdLVJ5_OpFMp81w0Q-25" value="gap" style="text;html=1;align=center;verticalAlign=middle;whiteSpace=wrap;rounded=0;" vertex="1" parent="1">
          <mxGeometry x="20" y="220" width="40" height="20" as="geometry" />
        </mxCell>
        <mxCell id="DOpNdLVJ5_OpFMp81w0Q-26" value="" style="endArrow=none;html=1;rounded=0;" edge="1" parent="1">
          <mxGeometry width="50" height="50" relative="1" as="geometry">
            <mxPoint x="90" y="179.9" as="sourcePoint" />
            <mxPoint x="80" y="179.9" as="targetPoint" />
          </mxGeometry>
        </mxCell>
      </root>
    </mxGraphModel>
  </diagram>
</mxfile>
